<svg fill="#FFFFFF" height="24" viewBox="0 0 24 24" width="24" xmlns="http://www.w3.org/2000/svg"><path d="m21.4166 10.3333c.1.6084.1584 1.2334.1584 1.8917 0 3.0417-1.0834 5.6083-2.9667 7.35-1.65 1.525-3.9083 2.425-6.6083 2.425-3.90836 0-7.28336-2.25-8.92503-5.5167-.68333-1.35-1.075-2.8666-1.075-4.4833s.39167-3.13333 1.075-4.48333c1.64167-3.26667 5.01667-5.51667 8.92503-5.51667 2.7 0 4.9583.99167 6.6833 2.60833l-2.85 2.85001c-1.0417-.99167-2.3583-1.50001-3.8333-1.50001-2.60836 0-4.8167 1.75834-5.60836 4.13337-.2.6-.31667 1.2416-.31667 1.9083s.10833 1.3083.31667 1.9083c.79166 2.375 3 4.1334 5.60836 4.1334 1.35 0 2.4916-.3667 3.3916-.9667 1.05-.7083 1.7584-1.75 2-2.9833h-5.3916v-3.7584z" stroke="#000" stroke-linejoin="round"/></svg>