<svg fill="#FFFFFF" height="24" viewBox="0 0 24 24" width="24" xmlns="http://www.w3.org/2000/svg"><path clip-rule="evenodd" d="m20.5949 4.45999c.9472.25354 1.6916.99786 1.9451 1.94502.4582 1.715.46 5.29539.46 5.29539s0 3.5803-.46 5.2953c-.2535.9472-.9979 1.6915-1.9451 1.945-1.7149.46-8.5949.46-8.5949.46s-6.87999 0-8.595-.46c-.94715-.2535-1.69147-.9978-1.94501-1.945-.45999-1.715-.45999-5.2953-.45999-5.2953s0-3.58039.45999-5.29539c.25354-.94716.99786-1.69148 1.94501-1.94502 1.71501-.45999 8.595-.45999 8.595-.45999s6.88 0 8.5949.45999zm-5.0815 7.24071-5.71552 3.2996v-6.59929z" fill-rule="evenodd" stroke="#000" stroke-linejoin="round"/></svg>