<svg fill="#FFFFFF" height="24" viewBox="0 0 24 24" width="24" xmlns="http://www.w3.org/2000/svg"><path d="m18.8943 4.34399c-1.376-.62932-2.8373-1.08799-4.3626-1.34399-.1921.33067-.4054.77866-.5547 1.13067-1.6224-.23468-3.2331-.23468-4.83309 0-.14934-.35201-.37335-.8-.55469-1.13067-1.53597.256-2.99731.71467-4.3637 1.34399-2.76266 4.07466-3.509332 8.05331-3.136 11.97861 1.83466 1.3333 3.60534 2.144 5.34508 2.6774.42666-.576.81067-1.1947 1.14134-1.8454-.62934-.2346-1.22667-.5226-1.80267-.864.14933-.1066.29867-.2239.43734-.3413 3.47732 1.5894 7.24369 1.5894 10.67839 0 .1493.1174.288.2347.4373.3413-.576.3414-1.1733.6294-1.8027.864.3307.6507.7147 1.2694 1.1414 1.8454 1.7386-.5334 3.52-1.3441 5.345-2.6774.4587-4.5439-.7264-8.49058-3.1157-11.97861zm-10.83837 9.55731c-1.04535 0-1.89868-.9493-1.89868-2.112 0-1.1626.832-2.11199 1.89868-2.11199 1.05598 0 1.91995.94939 1.89861 2.11199 0 1.1627-.84263 2.112-1.89861 2.112zm7.00907 0c-1.0454 0-1.8998-.9493-1.8998-2.112 0-1.1626.8331-2.11199 1.8998-2.11199 1.056 0 1.92.94939 1.8986 2.11199 0 1.1627-.8319 2.112-1.8986 2.112z" stroke="#000" stroke-linejoin="round"/></svg>