<svg width="1207" height="317" viewBox="0 0 1207 317" fill="none" xmlns="http://www.w3.org/2000/svg"><g clip-path="url(#clip0_16_4853)"><path d="M239.445 100.85L284.065 79.8503C284.065 79.8503 266.495 10.7603 173.065 10.7603C79.6346 10.7603 0.974609 77.1003 0.974609 181.91C0.974609 286.72 94.8346 313.14 131.535 313.14C198.435 313.14 284.065 266.09 284.065 217.31L266.975 175.93C266.975 175.93 224.635 262.65 141.355 262.65C85.3646 262.65 57.9846 215.33 57.9846 176.85C57.9846 123.31 94.9946 62.3603 164.855 62.3603C218.645 62.3503 239.445 100.85 239.445 100.85Z" fill="currentColor"/><path d="M452.894 138.4L427.674 308.19H480.724L494.634 212.08L497.624 170.49H493.274L505.304 138.4H452.894Z" fill="currentColor"/><path d="M485.834 185.75C488.714 180.42 510.354 135.48 561.404 135.48C578.704 135.48 603.714 147.74 603.714 175.27C603.714 202.6 591.984 232.29 591.984 249.11C591.984 260.64 595.694 269.94 603.294 269.94C620.574 269.94 629.984 242.21 635.524 194.52C641.184 145.79 650.274 91.9598 652.574 78.1998C661.744 23.4298 699.144 0.779785 730.374 0.779785C759.614 0.779785 773.244 11.8998 773.244 11.8998L756.104 54.6898C756.104 54.6898 748.084 48.2598 735.994 48.2598C701.814 48.2598 698.984 110.07 690.094 177.45C681.204 244.87 672.654 316.63 596.554 316.63C553.364 316.63 540.174 290.5 540.174 264.66C540.174 236.07 549.754 211.15 549.754 195.97C549.754 189.72 545.384 183.6 536.474 183.6C520.344 183.6 488.944 206.28 488.944 251.28L485.834 185.75Z" fill="currentColor"/><path d="M909.443 16.8901H963.763L931.953 223.03C931.953 223.03 920.893 266.43 946.973 266.43C973.053 266.43 994.833 198.93 994.833 198.93V247.1C994.833 247.1 983.923 313.21 921.633 313.13C863.743 313.05 878.013 223.4 878.013 223.4L909.443 16.8901Z" fill="currentColor"/><path d="M1017.35 16.8901H1071.67L1039.85 223.03C1039.85 223.03 1028.79 266.43 1054.87 266.43C1080.95 266.43 1102.73 199.93 1102.73 199.93V247.1C1102.73 247.1 1091.82 313.21 1029.53 313.13C971.643 313.05 985.913 223.4 985.913 223.4L1017.35 16.8901Z" fill="currentColor"/><path d="M1159.67 267.43C1133.59 267.43 1143.65 223.03 1143.65 223.03L1155.31 147.46H1101.27L1089.71 223.41C1089.71 223.41 1075.44 313.06 1133.33 313.14C1195.62 313.22 1206.53 247.11 1206.53 247.11V246.58L1191.69 237.89C1183.33 252.99 1172.1 267.43 1159.67 267.43Z" fill="currentColor"/><path d="M1137.08 71.9199C1121.2 71.9199 1107.26 85.0299 1107.26 100.78C1107.26 116.53 1117.22 129.67 1134.12 129.67C1151.02 129.67 1163.01 114.85 1163.01 99.9399C1163.01 85.0299 1154.64 71.9199 1137.08 71.9199Z" fill="currentColor"/><path d="M553.174 56.08C553.174 56.08 567.324 138.41 654.894 138.41C742.464 138.41 834.314 96.88 942.424 96.88C1040.95 96.88 1088.8 111.04 1088.8 111.04L1100.15 66.25C1100.15 66.25 1051.44 51.3 956.964 51.3C836.954 51.3 743.524 92.44 662.524 92.44C599.374 92.44 594.214 29.23 594.214 29.23L553.174 56.08Z" fill="currentColor"/><path d="M727.195 234.55C727.195 234.55 746.155 248.87 779.815 248.87C813.475 248.87 858.235 232.17 858.235 186.58C858.235 140.99 816.145 133.34 792.715 133.34C761.655 133.34 697.135 158.53 697.135 231.86C697.135 289.96 743.425 313.14 780.545 313.14C860.765 313.14 893.775 240.39 893.775 229.99C893.775 223.32 889.885 203.61 889.885 203.61L883.475 187.5C881.965 200.85 862.645 265.57 796.475 265.57C755.765 265.57 748.815 242.25 748.815 223.06C748.815 196.19 772.415 178.23 791.525 178.23C804.655 178.23 811.125 186.12 811.125 193.9C811.125 207.27 791.915 218.29 761.775 218.29C742.955 218.29 736.615 212.71 736.615 212.71L727.195 234.55Z" fill="currentColor"/><path d="M352.963 130.48C352.963 130.48 361.633 158.19 401.983 158.19C442.333 158.19 452.893 138.4 452.893 138.4H505.303C505.303 138.4 487.933 200.63 403.933 200.63C319.933 200.63 309.363 138.4 309.363 138.4C309.363 138.4 328.363 130.48 352.963 130.48Z" fill="currentColor"/><path d="M401.984 158.19C364.164 158.19 354.174 133.83 353.074 130.79C350.454 130.6 347.764 130.48 344.964 130.48C301.104 130.48 254.414 167.53 254.414 222.3C254.414 284.7 284.944 313.13 329.524 313.13C379.494 313.13 420.914 268.94 420.914 210.11C420.914 190.4 416.334 172.15 406.284 158.1C404.894 158.16 403.464 158.19 401.984 158.19ZM330.714 261.86C316.574 261.86 307.904 246.28 307.904 231.85C307.904 194.88 329.984 175.5 346.934 175.5C361.354 175.5 369.334 191.48 369.334 208.71C369.344 242.64 348.104 261.86 330.714 261.86Z" fill="currentColor"/></g><defs><clipPath id="clip0_16_4853"><rect width="1207" height="317" fill="white"/></clipPath></defs></svg>
